<svg width="300" height="300" xmlns="http://www.w3.org/2000/svg" xml:space="preserve" version="1.1">

 <g>
  <title>Layer 1</title>
  <g id="svg_4"/>
  <g id="svg_5"/>
  <g id="svg_6"/>
  <g id="svg_7"/>
  <g id="svg_8"/>
  <g id="svg_9"/>
  <g id="svg_10"/>
  <g id="svg_11"/>
  <g id="svg_12"/>
  <g id="svg_13"/>
  <g id="svg_14"/>
  <g id="svg_15"/>
  <g id="svg_16"/>
  <g id="svg_17"/>
  <g id="svg_18"/>
  <path id="svg_23" d="m234.45854,249.93016c0,3.07623 -2.36933,5.56851 -5.29383,5.56851l-33.90024,0c-2.92448,0 -5.29382,-2.49228 -5.29382,-5.56851l0,-75.75945c0,-3.07599 2.36933,-5.56851 5.29382,-5.56851l33.90024,0c2.9245,0 5.29383,2.49252 5.29383,5.56851l0,75.75945zm-125.50806,0c0,3.07623 -2.3698,5.56851 -5.29383,5.56851l-33.9007,0c-2.92403,0 -5.29382,-2.49228 -5.29382,-5.56851l0,-75.75945c0,-3.07599 2.36979,-5.56851 5.29382,-5.56851l33.9007,0c2.92403,0 5.29383,2.49252 5.29383,5.56851l0,75.75945zm40.95608,-205.42957c-61.3442,0 -111.14147,51.90753 -111.90623,116.23794l19.42106,0c0.62975,-53.16979 41.78858,-96.06982 92.48517,-96.06982c50.69658,0 91.85543,42.90002 92.47782,96.06982l19.42061,0c-0.75697,-64.33041 -50.56889,-116.23794 -111.89844,-116.23794l0.00001,0zm-111.74879,175.16522l19.06866,0l0,-59.0457l-19.06866,0l0,59.0457zm204.06919,-59.05365l0,59.04595l19.773,0l0,-59.04595l-19.773,0z" stroke="#fff" fill="#000"/>
  <path id="svg_29" d="m111.08713,186.34484l0,55.99999l77,0l0,-55.99999l-77,0zm64.87963,51.19333l-52.75926,0l0,-46.38667l52.75926,0l0,46.38667zm-39.92593,-28.20811c4.06674,0 7.36633,-2.90105 7.36633,-6.47658c0,-3.57804 -3.29959,-6.47658 -7.36633,-6.47658c-4.06959,0 -7.36633,2.90105 -7.36633,6.47658c0,3.57553 3.29674,6.47658 7.36633,6.47658zm37.07693,5.64162l-14.02256,-12.32882l-19.72626,17.3436l-5.467,-4.80666l-7.8483,6.90033l0,12.95066l47.06411,0l0,-20.0591z" stroke="#fff" fill="#000"/>
 </g>
</svg>